<svg width="342" height="56" viewBox="0 0 342 56" fill="none" xmlns="http://www.w3.org/2000/svg">
<rect width="342" height="56" rx="8" fill="#342F3F"/>
<rect x="293" y="8" width="40" height="40" rx="20" fill="#8E6CEF"/>
<path d="M313.6 25.2934L315.347 27.04C315.86 27.5534 315.86 28.3934 315.347 28.9067L311 33.2467M311 22.6934L311.693 23.3867" stroke="white" stroke-width="1.5" stroke-miterlimit="10" stroke-linecap="round" stroke-linejoin="round"/>
<path d="M54.056 32V23.06H59.816V23.96H55.016V27.068H59.576V27.968H55.016V31.1H59.816V32H54.056ZM61.2717 32V25.568H62.1717V26.816L61.9677 26.768C62.1277 26.352 62.3877 26.024 62.7477 25.784C63.1157 25.544 63.5397 25.424 64.0197 25.424C64.4757 25.424 64.8837 25.528 65.2437 25.736C65.6117 25.944 65.8997 26.232 66.1077 26.6C66.3237 26.96 66.4317 27.368 66.4317 27.824V32H65.5317V28.172C65.5317 27.78 65.4597 27.448 65.3157 27.176C65.1797 26.904 64.9837 26.696 64.7277 26.552C64.4797 26.4 64.1917 26.324 63.8637 26.324C63.5357 26.324 63.2437 26.4 62.9877 26.552C62.7317 26.696 62.5317 26.908 62.3877 27.188C62.2437 27.46 62.1717 27.788 62.1717 28.172V32H61.2717ZM70.6106 32.072C70.0346 32.072 69.5906 31.904 69.2786 31.568C68.9666 31.232 68.8106 30.752 68.8106 30.128V26.468H67.6226V25.568H67.9226C68.1946 25.568 68.4106 25.48 68.5706 25.304C68.7306 25.12 68.8106 24.892 68.8106 24.62V24.08H69.7106V25.568H71.1266V26.468H69.7106V30.128C69.7106 30.344 69.7426 30.536 69.8066 30.704C69.8706 30.864 69.9786 30.992 70.1306 31.088C70.2906 31.184 70.5026 31.232 70.7666 31.232C70.8306 31.232 70.9066 31.228 70.9946 31.22C71.0826 31.212 71.1586 31.204 71.2226 31.196V32C71.1266 32.024 71.0186 32.04 70.8986 32.048C70.7786 32.064 70.6826 32.072 70.6106 32.072ZM75.4965 32.144C74.8965 32.144 74.3525 32 73.8645 31.712C73.3845 31.416 73.0045 31.012 72.7245 30.5C72.4445 29.988 72.3045 29.408 72.3045 28.76C72.3045 28.112 72.4405 27.54 72.7125 27.044C72.9845 26.54 73.3525 26.144 73.8165 25.856C74.2885 25.568 74.8165 25.424 75.4005 25.424C75.8645 25.424 76.2765 25.512 76.6365 25.688C77.0045 25.856 77.3165 26.088 77.5725 26.384C77.8285 26.672 78.0245 27 78.1605 27.368C78.2965 27.728 78.3645 28.1 78.3645 28.484C78.3645 28.564 78.3605 28.656 78.3525 28.76C78.3445 28.856 78.3325 28.956 78.3165 29.06H72.8805V28.22H77.8005L77.3685 28.58C77.4405 28.14 77.3885 27.748 77.2125 27.404C77.0445 27.052 76.8005 26.776 76.4805 26.576C76.1605 26.368 75.8005 26.264 75.4005 26.264C75.0005 26.264 74.6285 26.368 74.2845 26.576C73.9485 26.784 73.6845 27.076 73.4925 27.452C73.3005 27.82 73.2245 28.26 73.2645 28.772C73.2245 29.284 73.3045 29.732 73.5045 30.116C73.7125 30.492 73.9925 30.784 74.3445 30.992C74.7045 31.2 75.0885 31.304 75.4965 31.304C75.9685 31.304 76.3645 31.192 76.6845 30.968C77.0045 30.744 77.2645 30.464 77.4645 30.128L78.2325 30.536C78.1045 30.824 77.9085 31.092 77.6445 31.34C77.3805 31.58 77.0645 31.776 76.6965 31.928C76.3365 32.072 75.9365 32.144 75.4965 32.144ZM79.9513 32V25.568H80.8513V26.624L80.7313 26.468C80.8833 26.164 81.1113 25.924 81.4153 25.748C81.7273 25.572 82.1033 25.484 82.5433 25.484H82.9513V26.384H82.3873C81.9233 26.384 81.5513 26.528 81.2713 26.816C80.9913 27.104 80.8513 27.512 80.8513 28.04V32H79.9513ZM90.2571 32.144C89.6251 32.144 89.0451 32.032 88.5171 31.808C87.9891 31.576 87.5291 31.256 87.1371 30.848C86.7531 30.432 86.4531 29.944 86.2371 29.384C86.0211 28.824 85.9131 28.208 85.9131 27.536C85.9131 26.864 86.0211 26.248 86.2371 25.688C86.4531 25.128 86.7531 24.64 87.1371 24.224C87.5291 23.808 87.9891 23.488 88.5171 23.264C89.0451 23.032 89.6251 22.916 90.2571 22.916C90.8651 22.916 91.4091 23.024 91.8891 23.24C92.3771 23.456 92.7851 23.736 93.1131 24.08C93.4491 24.416 93.6891 24.772 93.8331 25.148L92.9331 25.544C92.7091 25.024 92.3651 24.608 91.9011 24.296C91.4451 23.976 90.8971 23.816 90.2571 23.816C89.6011 23.816 89.0171 23.972 88.5051 24.284C87.9931 24.596 87.5931 25.032 87.3051 25.592C87.0171 26.144 86.8731 26.792 86.8731 27.536C86.8731 28.272 87.0171 28.92 87.3051 29.48C87.5931 30.04 87.9931 30.476 88.5051 30.788C89.0171 31.092 89.6011 31.244 90.2571 31.244C90.8971 31.244 91.4451 31.088 91.9011 30.776C92.3651 30.464 92.7091 30.048 92.9331 29.528L93.8331 29.924C93.6891 30.292 93.4491 30.648 93.1131 30.992C92.7851 31.328 92.3771 31.604 91.8891 31.82C91.4091 32.036 90.8651 32.144 90.2571 32.144ZM98.3149 32.144C97.7069 32.144 97.1549 32 96.6589 31.712C96.1629 31.416 95.7669 31.016 95.4709 30.512C95.1829 30 95.0389 29.42 95.0389 28.772C95.0389 28.132 95.1829 27.56 95.4709 27.056C95.7589 26.552 96.1469 26.156 96.6349 25.868C97.1309 25.572 97.6909 25.424 98.3149 25.424C98.9389 25.424 99.4949 25.568 99.9829 25.856C100.479 26.144 100.867 26.54 101.147 27.044C101.435 27.548 101.579 28.124 101.579 28.772C101.579 29.428 101.431 30.012 101.135 30.524C100.839 31.028 100.443 31.424 99.9469 31.712C99.4589 32 98.9149 32.144 98.3149 32.144ZM98.3149 31.244C98.7469 31.244 99.1349 31.136 99.4789 30.92C99.8309 30.704 100.107 30.408 100.307 30.032C100.515 29.656 100.619 29.236 100.619 28.772C100.619 28.308 100.515 27.892 100.307 27.524C100.107 27.156 99.8309 26.864 99.4789 26.648C99.1349 26.432 98.7469 26.324 98.3149 26.324C97.8829 26.324 97.4909 26.432 97.1389 26.648C96.7949 26.864 96.5189 27.156 96.3109 27.524C96.1029 27.892 95.9989 28.308 95.9989 28.772C95.9989 29.236 96.1029 29.656 96.3109 30.032C96.5189 30.408 96.7949 30.704 97.1389 30.92C97.4909 31.136 97.8829 31.244 98.3149 31.244ZM105.446 32.144C104.998 32.144 104.59 32.04 104.222 31.832C103.854 31.616 103.562 31.32 103.346 30.944C103.138 30.56 103.034 30.12 103.034 29.624V25.568H103.934V29.516C103.934 29.86 104.002 30.164 104.138 30.428C104.282 30.684 104.478 30.884 104.726 31.028C104.982 31.172 105.274 31.244 105.602 31.244C105.93 31.244 106.222 31.172 106.478 31.028C106.734 30.876 106.934 30.664 107.078 30.392C107.222 30.112 107.294 29.78 107.294 29.396V25.568H108.194V32H107.294V30.752L107.498 30.8C107.346 31.216 107.086 31.544 106.718 31.784C106.35 32.024 105.926 32.144 105.446 32.144ZM110.045 34.4V25.568H110.945V27.008L110.801 26.756C111.057 26.348 111.397 26.024 111.821 25.784C112.253 25.544 112.745 25.424 113.297 25.424C113.905 25.424 114.445 25.572 114.917 25.868C115.397 26.156 115.773 26.552 116.045 27.056C116.325 27.56 116.465 28.136 116.465 28.784C116.465 29.424 116.325 30 116.045 30.512C115.773 31.016 115.397 31.416 114.917 31.712C114.445 32 113.905 32.144 113.297 32.144C112.745 32.144 112.245 32.02 111.797 31.772C111.357 31.516 111.025 31.156 110.801 30.692L110.945 30.56V34.4H110.045ZM113.249 31.244C113.681 31.244 114.065 31.136 114.401 30.92C114.745 30.704 115.013 30.412 115.205 30.044C115.405 29.668 115.505 29.248 115.505 28.784C115.505 28.312 115.405 27.892 115.205 27.524C115.013 27.156 114.745 26.864 114.401 26.648C114.065 26.432 113.681 26.324 113.249 26.324C112.817 26.324 112.425 26.432 112.073 26.648C111.729 26.864 111.453 27.16 111.245 27.536C111.045 27.904 110.945 28.32 110.945 28.784C110.945 29.248 111.045 29.668 111.245 30.044C111.453 30.412 111.729 30.704 112.073 30.92C112.425 31.136 112.817 31.244 113.249 31.244ZM121.061 32.144C120.453 32.144 119.901 32 119.405 31.712C118.909 31.416 118.513 31.016 118.217 30.512C117.929 30 117.785 29.42 117.785 28.772C117.785 28.132 117.929 27.56 118.217 27.056C118.505 26.552 118.893 26.156 119.381 25.868C119.877 25.572 120.437 25.424 121.061 25.424C121.685 25.424 122.241 25.568 122.729 25.856C123.225 26.144 123.613 26.54 123.893 27.044C124.181 27.548 124.325 28.124 124.325 28.772C124.325 29.428 124.177 30.012 123.881 30.524C123.585 31.028 123.189 31.424 122.693 31.712C122.205 32 121.661 32.144 121.061 32.144ZM121.061 31.244C121.493 31.244 121.881 31.136 122.225 30.92C122.577 30.704 122.853 30.408 123.053 30.032C123.261 29.656 123.365 29.236 123.365 28.772C123.365 28.308 123.261 27.892 123.053 27.524C122.853 27.156 122.577 26.864 122.225 26.648C121.881 26.432 121.493 26.324 121.061 26.324C120.629 26.324 120.237 26.432 119.885 26.648C119.541 26.864 119.265 27.156 119.057 27.524C118.849 27.892 118.745 28.308 118.745 28.772C118.745 29.236 118.849 29.656 119.057 30.032C119.265 30.408 119.541 30.704 119.885 30.92C120.237 31.136 120.629 31.244 121.061 31.244ZM125.912 32V25.568H126.812V26.816L126.608 26.768C126.768 26.352 127.028 26.024 127.388 25.784C127.756 25.544 128.18 25.424 128.66 25.424C129.116 25.424 129.524 25.528 129.884 25.736C130.252 25.944 130.54 26.232 130.748 26.6C130.964 26.96 131.072 27.368 131.072 27.824V32H130.172V28.172C130.172 27.78 130.1 27.448 129.956 27.176C129.82 26.904 129.624 26.696 129.368 26.552C129.12 26.4 128.832 26.324 128.504 26.324C128.176 26.324 127.884 26.4 127.628 26.552C127.372 26.696 127.172 26.908 127.028 27.188C126.884 27.46 126.812 27.788 126.812 28.172V32H125.912ZM139.042 32.144C138.41 32.144 137.83 32.032 137.302 31.808C136.774 31.576 136.314 31.256 135.922 30.848C135.538 30.432 135.238 29.944 135.022 29.384C134.806 28.824 134.698 28.208 134.698 27.536C134.698 26.864 134.806 26.248 135.022 25.688C135.238 25.128 135.538 24.64 135.922 24.224C136.314 23.808 136.774 23.488 137.302 23.264C137.83 23.032 138.41 22.916 139.042 22.916C139.65 22.916 140.194 23.024 140.674 23.24C141.162 23.456 141.57 23.736 141.898 24.08C142.234 24.416 142.474 24.772 142.618 25.148L141.718 25.544C141.494 25.024 141.15 24.608 140.686 24.296C140.23 23.976 139.682 23.816 139.042 23.816C138.386 23.816 137.802 23.972 137.29 24.284C136.778 24.596 136.378 25.032 136.09 25.592C135.802 26.144 135.658 26.792 135.658 27.536C135.658 28.272 135.802 28.92 136.09 29.48C136.378 30.04 136.778 30.476 137.29 30.788C137.802 31.092 138.386 31.244 139.042 31.244C139.682 31.244 140.23 31.088 140.686 30.776C141.15 30.464 141.494 30.048 141.718 29.528L142.618 29.924C142.474 30.292 142.234 30.648 141.898 30.992C141.57 31.328 141.162 31.604 140.674 31.82C140.194 32.036 139.65 32.144 139.042 32.144ZM147.1 32.144C146.492 32.144 145.94 32 145.444 31.712C144.948 31.416 144.552 31.016 144.256 30.512C143.968 30 143.824 29.42 143.824 28.772C143.824 28.132 143.968 27.56 144.256 27.056C144.544 26.552 144.932 26.156 145.42 25.868C145.916 25.572 146.476 25.424 147.1 25.424C147.724 25.424 148.28 25.568 148.768 25.856C149.264 26.144 149.652 26.54 149.932 27.044C150.22 27.548 150.364 28.124 150.364 28.772C150.364 29.428 150.216 30.012 149.92 30.524C149.624 31.028 149.228 31.424 148.732 31.712C148.244 32 147.7 32.144 147.1 32.144ZM147.1 31.244C147.532 31.244 147.92 31.136 148.264 30.92C148.616 30.704 148.892 30.408 149.092 30.032C149.3 29.656 149.404 29.236 149.404 28.772C149.404 28.308 149.3 27.892 149.092 27.524C148.892 27.156 148.616 26.864 148.264 26.648C147.92 26.432 147.532 26.324 147.1 26.324C146.668 26.324 146.276 26.432 145.924 26.648C145.58 26.864 145.304 27.156 145.096 27.524C144.888 27.892 144.784 28.308 144.784 28.772C144.784 29.236 144.888 29.656 145.096 30.032C145.304 30.408 145.58 30.704 145.924 30.92C146.276 31.136 146.668 31.244 147.1 31.244ZM154.855 32.144C154.255 32.144 153.715 32 153.235 31.712C152.755 31.416 152.375 31.016 152.095 30.512C151.823 30 151.687 29.424 151.687 28.784C151.687 28.136 151.823 27.56 152.095 27.056C152.375 26.552 152.751 26.156 153.223 25.868C153.703 25.572 154.247 25.424 154.855 25.424C155.407 25.424 155.899 25.544 156.331 25.784C156.763 26.024 157.103 26.348 157.351 26.756L157.207 27.008V22.916H158.107V32H157.207V30.56L157.351 30.692C157.127 31.156 156.791 31.516 156.343 31.772C155.903 32.02 155.407 32.144 154.855 32.144ZM154.903 31.244C155.335 31.244 155.723 31.136 156.067 30.92C156.419 30.704 156.695 30.412 156.895 30.044C157.103 29.668 157.207 29.248 157.207 28.784C157.207 28.32 157.103 27.904 156.895 27.536C156.695 27.16 156.419 26.864 156.067 26.648C155.723 26.432 155.335 26.324 154.903 26.324C154.479 26.324 154.095 26.432 153.751 26.648C153.407 26.864 153.135 27.156 152.935 27.524C152.743 27.892 152.647 28.312 152.647 28.784C152.647 29.248 152.743 29.668 152.935 30.044C153.135 30.412 153.403 30.704 153.739 30.92C154.083 31.136 154.471 31.244 154.903 31.244ZM162.883 32.144C162.283 32.144 161.739 32 161.251 31.712C160.771 31.416 160.391 31.012 160.111 30.5C159.831 29.988 159.691 29.408 159.691 28.76C159.691 28.112 159.827 27.54 160.099 27.044C160.371 26.54 160.739 26.144 161.203 25.856C161.675 25.568 162.203 25.424 162.787 25.424C163.251 25.424 163.663 25.512 164.023 25.688C164.391 25.856 164.703 26.088 164.959 26.384C165.215 26.672 165.411 27 165.547 27.368C165.683 27.728 165.751 28.1 165.751 28.484C165.751 28.564 165.747 28.656 165.739 28.76C165.731 28.856 165.719 28.956 165.703 29.06H160.267V28.22H165.187L164.755 28.58C164.827 28.14 164.775 27.748 164.599 27.404C164.431 27.052 164.187 26.776 163.867 26.576C163.547 26.368 163.187 26.264 162.787 26.264C162.387 26.264 162.015 26.368 161.671 26.576C161.335 26.784 161.071 27.076 160.879 27.452C160.687 27.82 160.611 28.26 160.651 28.772C160.611 29.284 160.691 29.732 160.891 30.116C161.099 30.492 161.379 30.784 161.731 30.992C162.091 31.2 162.475 31.304 162.883 31.304C163.355 31.304 163.751 31.192 164.071 30.968C164.391 30.744 164.651 30.464 164.851 30.128L165.619 30.536C165.491 30.824 165.295 31.092 165.031 31.34C164.767 31.58 164.451 31.776 164.083 31.928C163.723 32.072 163.323 32.144 162.883 32.144Z" fill="white" fill-opacity="0.5"/>
<path d="M30.6589 36.0099L29.1389 37.5299C28.5189 38.1499 27.4989 38.1499 26.8789 37.5299L25.3589 36.0099C25.0989 35.7499 24.5889 35.5399 24.2289 35.5399H22.0789C21.1989 35.5399 20.4789 34.8199 20.4789 33.9399V31.7899C20.4789 31.4299 20.2689 30.9199 20.0089 30.6599L18.4889 29.1399C17.8689 28.5199 17.8689 27.4999 18.4889 26.8799L20.0089 25.3599C20.2689 25.0999 20.4789 24.5899 20.4789 24.2299V22.0799C20.4789 21.1999 21.1989 20.4799 22.0789 20.4799M25.3399 19.9889L26.8599 18.4689C27.4799 17.8489 28.4999 17.8489 29.1199 18.4689L30.6399 19.9889C30.8999 20.2489 31.4099 20.4589 31.7699 20.4589H33.9199C34.7999 20.4589 35.5199 21.1789 35.5199 22.0589V24.2089C35.5199 24.5689 35.7299 25.0789 35.9899 25.3389L37.5099 26.8589C38.1299 27.4789 38.1299 28.4989 37.5099 29.1189L35.9899 30.6389C35.7299 30.8989 35.5199 31.4089 35.5199 31.7689V33.9189C35.5199 34.7989 34.7999 35.5189 33.9199 35.5189M24.9999 30.9999L30.9999 24.9999" stroke="#5FB567" stroke-width="1.5" stroke-linecap="round" stroke-linejoin="round"/>
<path d="M30.4951 30.5H30.5041M25.4951 25.5H25.5031" stroke="#5FB567" stroke-width="2" stroke-linecap="round" stroke-linejoin="round"/>
</svg>
